<svg width="14" height="14" viewBox="0 0 14 14" fill="none" xmlns="http://www.w3.org/2000/svg">
<path d="M10.4498 9.43932L13.636 12.6255L12.6252 13.6364L9.43895 10.4501L6.80144 13.0876C6.69538 13.1937 6.56103 13.246 6.40122 13.239C6.24561 13.2359 6.09748 13.1717 5.98898 13.0601C5.45016 12.5212 5.12419 11.8764 5.01388 11.1219C4.90498 10.3695 5.051 9.79075 5.45582 9.38594L2.59345 6.52357C2.38026 6.73676 2.11403 6.83611 1.79018 6.82621C1.47862 6.8193 1.18221 6.69045 0.964631 6.46735C0.736235 6.23896 0.618148 5.96531 0.605774 5.64181C0.594814 5.32184 0.69487 5.05208 0.908416 4.83853L4.8371 0.909849C5.05029 0.696656 5.31652 0.597308 5.64037 0.607207C5.96175 0.619582 6.23788 0.737315 6.46627 0.965711C6.69467 1.19411 6.81275 1.46776 6.82513 1.79126C6.8375 2.11547 6.73533 2.38169 6.52213 2.59488L9.38309 5.45584C9.78791 5.05102 10.3681 4.90359 11.119 5.0139C11.856 5.1155 12.5386 5.45839 13.06 5.989C13.1735 6.10249 13.2354 6.24073 13.2393 6.40089C13.2435 6.56069 13.194 6.69504 13.088 6.80111L10.4501 9.43897L10.4498 9.43932Z" fill="black" fill-opacity="0.4"/>
</svg>
