<svg width="12" height="20" viewBox="0 0 12 20" fill="none" xmlns="http://www.w3.org/2000/svg">
<path d="M0.74762 1.88023C0.74762 2.22356 0.884008 2.55283 1.12678 2.79561C1.36955 3.03838 1.69882 3.17477 2.04216 3.17477C2.38549 3.17477 2.71476 3.03838 2.95754 2.79561C3.20031 2.55283 3.3367 2.22356 3.3367 1.88023C3.3367 1.5369 3.20031 1.20763 2.95754 0.964855C2.71476 0.722082 2.38549 0.585693 2.04216 0.585693C1.69882 0.585693 1.36955 0.722082 1.12678 0.964855C0.884008 1.20763 0.74762 1.5369 0.74762 1.88023ZM0.771892 9.96435C0.771892 10.3077 0.908281 10.637 1.15105 10.8797C1.39383 11.1225 1.7231 11.2589 2.06643 11.2589C2.40976 11.2589 2.73903 11.1225 2.98181 10.8797C3.22458 10.637 3.36097 10.3077 3.36097 9.96435C3.36097 9.62102 3.22458 9.29175 2.98181 9.04897C2.73903 8.8062 2.40976 8.66981 2.06643 8.66981C1.7231 8.66981 1.39383 8.8062 1.15105 9.04897C0.908281 9.29175 0.771892 9.62102 0.771892 9.96435ZM0.771892 18.2516C0.771892 18.5949 0.908281 18.9242 1.15105 19.1669C1.39383 19.4097 1.7231 19.5461 2.06643 19.5461C2.40976 19.5461 2.73903 19.4097 2.98181 19.1669C3.22458 18.9242 3.36097 18.5949 3.36097 18.2516C3.36097 17.9082 3.22458 17.5789 2.98181 17.3362C2.73903 17.0934 2.40976 16.957 2.06643 16.957C1.7231 16.957 1.39383 17.0934 1.15105 17.3362C0.908281 17.5789 0.771892 17.9082 0.771892 18.2516ZM9.24384 1.88023C9.24384 2.22356 9.38023 2.55283 9.623 2.79561C9.86577 3.03838 10.195 3.17477 10.5384 3.17477C10.8817 3.17477 11.211 3.03838 11.4538 2.79561C11.6965 2.55283 11.8329 2.22356 11.8329 1.88023C11.8329 1.5369 11.6965 1.20763 11.4538 0.964855C11.211 0.722082 10.8817 0.585693 10.5384 0.585693C10.195 0.585693 9.86577 0.722082 9.623 0.964855C9.38023 1.20763 9.24384 1.5369 9.24384 1.88023ZM9.26811 9.96435C9.26811 10.3077 9.4045 10.637 9.64727 10.8797C9.89004 11.1225 10.2193 11.2589 10.5626 11.2589C10.906 11.2589 11.2353 11.1225 11.478 10.8797C11.7208 10.637 11.8572 10.3077 11.8572 9.96435C11.8572 9.62102 11.7208 9.29175 11.478 9.04897C11.2353 8.8062 10.906 8.66981 10.5626 8.66981C10.2193 8.66981 9.89004 8.8062 9.64727 9.04897C9.4045 9.29175 9.26811 9.62102 9.26811 9.96435ZM9.26811 18.2516C9.26811 18.5949 9.4045 18.9242 9.64727 19.1669C9.89004 19.4097 10.2193 19.5461 10.5626 19.5461C10.906 19.5461 11.2353 19.4097 11.478 19.1669C11.7208 18.9242 11.8572 18.5949 11.8572 18.2516C11.8572 17.9082 11.7208 17.5789 11.478 17.3362C11.2353 17.0934 10.906 16.957 10.5626 16.957C10.2193 16.957 9.89004 17.0934 9.64727 17.3362C9.4045 17.5789 9.26811 17.9082 9.26811 18.2516Z" fill="black" fill-opacity="0.4"/>
</svg>
