<svg width="14" height="14" viewBox="0 0 14 14" fill="none" xmlns="http://www.w3.org/2000/svg">
    <path d="M12.6 8.4C12.9713 8.4 13.3274 8.5475 13.5899 8.81005C13.8525 9.0726 14 9.4287 14 9.8V12.6C14 12.9713 13.8525 13.3274 13.5899 13.5899C13.3274 13.8525 12.9713 14 12.6 14H9.8C9.4287 14 9.0726 13.8525 8.81005 13.5899C8.5475 13.3274 8.4 12.9713 8.4 12.6V9.8C8.4 9.4287 8.5475 9.0726 8.81005 8.81005C9.0726 8.5475 9.4287 8.4 9.8 8.4H12.6V8.4ZM1.0717 7.175L1.2047 7.4025C1.2187 7.4487 1.2369 7.658 1.2481 7.7364C1.38581 8.65196 1.73527 9.52275 2.2687 10.2795C2.52295 10.6392 2.81772 10.9685 3.1472 11.2609C4.2014 12.1975 5.2451 12.642 6.2895 12.621C6.42874 12.6182 6.56338 12.6709 6.66381 12.7673C6.76423 12.8638 6.82222 12.9963 6.825 13.1355C6.82778 13.2747 6.77514 13.4094 6.67866 13.5098C6.58217 13.6102 6.44974 13.6682 6.3105 13.671C4.9805 13.6976 3.6904 13.1474 2.45 12.0456C1.98754 11.6355 1.58318 11.1643 1.2481 10.6449L1.225 10.6064V11.4562C1.22509 11.5954 1.16987 11.729 1.07148 11.8275C0.973088 11.9261 0.839589 11.9815 0.70035 11.9816C0.561111 11.9816 0.427539 11.9264 0.329016 11.828C0.230494 11.7296 0.175093 11.5961 0.175 11.4569L0.1764 7.5089L0.1834 7.4508L0.2044 7.3717L1.0717 7.175V7.175ZM12.6 9.45H9.8C9.71808 9.44997 9.63875 9.47868 9.57582 9.53112C9.51289 9.58357 9.47035 9.65642 9.4556 9.737L9.45 9.8V12.6C9.44997 12.6819 9.47868 12.7613 9.53112 12.8242C9.58357 12.8871 9.65642 12.9297 9.737 12.9444L9.8 12.95H12.6C12.6819 12.95 12.7613 12.9213 12.8242 12.8689C12.8871 12.8164 12.9297 12.7436 12.9444 12.663L12.95 12.6V9.8C12.95 9.71808 12.9213 9.63875 12.8689 9.57582C12.8164 9.51289 12.7436 9.47035 12.663 9.4556L12.6 9.45ZM7.6895 0.1757C9.0195 0.1491 10.3096 0.6993 11.55 1.8011C12.0125 2.21117 12.4168 2.68242 12.7519 3.2018L12.775 3.2403V2.3905C12.7749 2.25126 12.8301 2.11769 12.9285 2.01917C13.0269 1.92064 13.1604 1.86524 13.2997 1.86515C13.4389 1.86506 13.5725 1.92028 13.671 2.01867C13.7695 2.11706 13.8249 2.25056 13.825 2.3898L13.8236 6.3378L13.8166 6.3959L13.7956 6.475L12.9283 6.671L12.7953 6.4442C12.7813 6.398 12.7631 6.188 12.7519 6.1103C12.6142 5.19474 12.2647 4.32395 11.7313 3.5672C11.477 3.20748 11.1823 2.87818 10.8528 2.5858C9.7986 1.6492 8.7549 1.2047 7.7105 1.2257C7.64156 1.22708 7.57302 1.21486 7.50879 1.18975C7.44457 1.16465 7.38592 1.12713 7.33619 1.07936C7.23577 0.982868 7.17778 0.850439 7.175 0.7112C7.17222 0.571961 7.22486 0.437319 7.32134 0.336894C7.41783 0.236468 7.55026 0.178485 7.6895 0.1757V0.1757ZM4.2 0C4.5713 0 4.9274 0.1475 5.18995 0.410051C5.4525 0.672601 5.6 1.0287 5.6 1.4V4.2C5.6 4.5713 5.4525 4.9274 5.18995 5.18995C4.9274 5.4525 4.5713 5.6 4.2 5.6H1.4C1.0287 5.6 0.672601 5.4525 0.410051 5.18995C0.1475 4.9274 0 4.5713 0 4.2L0 1.4C0 1.0287 0.1475 0.672601 0.410051 0.410051C0.672601 0.1475 1.0287 0 1.4 0L4.2 0V0ZM4.2 1.05H1.4C1.31808 1.04997 1.23875 1.07868 1.17582 1.13112C1.11289 1.18357 1.07035 1.25642 1.0556 1.337L1.05 1.4V4.2C1.04997 4.28192 1.07868 4.36125 1.13112 4.42418C1.18357 4.48711 1.25642 4.52965 1.337 4.5444L1.4 4.55H4.2C4.28192 4.55003 4.36125 4.52132 4.42418 4.46888C4.48711 4.41643 4.52965 4.34358 4.5444 4.263L4.55 4.2V1.4C4.55003 1.31808 4.52132 1.23875 4.46888 1.17582C4.41643 1.11289 4.34358 1.07035 4.263 1.0556L4.2 1.05Z"
          fill="#323233"/>
</svg>
